<?xml version="1.0" standalone="no"?>
<!DOCTYPE svg PUBLIC "-//W3C//DTD SVG 20010904//EN"
 "http://www.w3.org/TR/2001/REC-SVG-20010904/DTD/svg10.dtd">
<svg version="1.0" xmlns="http://www.w3.org/2000/svg" viewBox="0 0 1024.000000 1024.000000"
 preserveAspectRatio="xMidYMid meet" fill="#2C6030">

<g transform="translate(0.000000,1024.000000) scale(0.100000,-0.100000)">
<path  d="M5335 8869 c-473 -114 -1195 -336 -1575 -484 -19 -8 -96 -37 -170
-66 -137 -53 -363 -147 -461 -192 -333 -152 -560 -267 -830 -419 l-195 -111
-31 -91 c-42 -121 -53 -197 -53 -353 0 -151 -19 -123 175 -270 148 -112 229
-176 365 -282 58 -46 141 -110 185 -144 44 -34 89 -69 100 -79 11 -9 62 -49
114 -90 52 -40 120 -93 152 -118 31 -25 85 -67 120 -94 111 -86 169 -138 169
-150 0 -17 -201 -210 -459 -442 -24 -21 -49 -44 -55 -50 -6 -5 -74 -63 -151
-128 -77 -65 -151 -128 -165 -140 -235 -201 -429 -341 -582 -419 l-83 -42
-130 0 c-134 0 -163 8 -227 58 -25 20 -66 106 -79 168 -20 92 -6 272 35 450
19 85 38 162 41 170 9 26 45 232 40 237 -6 6 -87 -168 -141 -301 -76 -188 -89
-255 -89 -462 1 -207 9 -244 89 -364 69 -104 157 -176 300 -247 32 -16 61 -35
63 -42 3 -6 -3 -31 -12 -55 -62 -150 -128 -349 -157 -472 -29 -125 -32 -374
-4 -455 34 -102 87 -188 166 -273 97 -103 166 -143 278 -159 139 -20 196 3
387 162 33 27 65 49 72 50 14 0 19 -35 33 -230 22 -298 79 -474 204 -635 116
-150 283 -243 493 -274 152 -23 554 -5 686 30 20 5 42 7 47 4 6 -3 10 -27 10
-53 0 -77 59 -287 102 -364 28 -50 100 -138 140 -173 100 -85 202 -125 325
-125 174 0 280 85 667 540 234 274 413 458 529 544 43 31 84 59 91 62 10 4 14
-60 19 -303 4 -169 11 -311 16 -316 12 -12 52 113 87 268 7 33 18 141 24 240
7 99 13 190 16 202 8 44 380 254 553 312 111 38 352 101 384 101 17 0 31 -15
56 -57 100 -169 188 -266 287 -314 68 -34 70 -34 204 -34 148 1 217 15 324 67
200 97 300 250 342 522 25 167 28 297 11 436 -9 69 -18 148 -21 175 -7 63 -45
380 -81 690 -29 240 -45 379 -55 465 -9 82 -23 196 -55 468 -8 70 -20 170 -25
222 -5 52 -14 127 -20 165 -5 39 -17 135 -25 215 -9 80 -22 199 -30 265 -43
364 -101 1054 -92 1079 6 16 14 12 57 -28 27 -25 51 -46 54 -46 6 0 -8 40 -24
67 -24 42 -168 391 -235 571 -15 41 -31 70 -35 65 -5 -4 -24 -47 -44 -94 -24
-60 -34 -97 -31 -120 3 -19 12 -95 20 -169 25 -217 41 -354 80 -657 8 -65 28
-230 45 -368 17 -137 35 -284 40 -325 10 -84 31 -251 55 -445 9 -71 22 -179
30 -240 8 -60 22 -168 30 -240 9 -71 20 -164 25 -205 5 -41 23 -187 40 -325
17 -137 37 -302 45 -365 57 -459 120 -1082 127 -1260 l3 -75 -38 -19 c-61 -29
-226 -82 -318 -102 -120 -25 -335 -25 -408 0 -54 19 -141 91 -141 118 0 7 25
40 56 73 191 206 274 395 274 625 0 175 -66 366 -167 479 -58 66 -92 81 -181
81 -127 0 -211 -66 -282 -223 -74 -163 -79 -408 -16 -712 8 -38 16 -87 18
-108 4 -46 11 -43 -227 -111 -176 -51 -336 -111 -490 -185 -55 -26 -101 -44
-103 -40 -2 4 1 144 6 311 10 290 8 376 -17 802 -6 88 -8 163 -5 168 3 4 22 8
42 8 84 1 306 115 406 209 106 101 162 217 186 385 13 91 12 100 -20 376 -20
163 -25 205 -54 430 -8 63 -22 171 -31 240 -9 69 -21 154 -26 190 -6 36 -14
99 -19 140 -11 89 -34 261 -55 420 -9 63 -20 149 -25 190 -5 41 -20 165 -34
275 -33 268 -52 429 -71 615 -8 85 -20 196 -25 247 -10 90 -14 233 -6 233 2 0
38 -18 80 -41 42 -22 76 -38 76 -34 0 26 -327 695 -340 695 -5 0 -25 -50 -45
-112 -41 -125 -41 -104 1 -368 45 -288 80 -520 99 -675 15 -121 23 -177 49
-380 8 -60 22 -166 31 -235 8 -69 22 -172 30 -230 8 -58 21 -158 30 -223 8
-64 22 -168 30 -230 8 -61 24 -182 35 -267 11 -85 27 -209 35 -275 9 -66 20
-154 25 -195 5 -41 16 -129 25 -195 26 -203 53 -455 61 -563 l7 -103 -45 -42
c-114 -108 -323 -185 -442 -163 -62 12 -65 20 -100 336 -23 195 -75 633 -86
715 -34 256 -72 560 -115 925 -8 69 -17 170 -21 224 -8 111 -13 107 66 51 71
-50 72 -50 44 12 -14 32 -41 92 -59 133 -66 153 -148 337 -180 406 -18 39 -36
81 -40 93 -6 21 -12 15 -47 -49 l-40 -72 11 -141 c7 -78 14 -153 16 -167 3
-14 12 -90 20 -170 26 -242 33 -297 85 -720 11 -91 27 -219 35 -285 66 -517
120 -1011 128 -1170 l2 -50 -32 1 c-55 3 -231 132 -434 318 -73 67 -115 104
-229 205 -52 46 -111 98 -130 116 -19 17 -159 136 -310 264 -151 127 -312 263
-357 302 -46 38 -83 76 -83 85 0 57 352 91 515 50 142 -37 294 -112 396 -197
26 -22 52 -39 58 -39 24 0 35 48 35 160 1 162 -5 175 -122 264 -285 215 -416
457 -503 925 -20 109 -26 241 -10 241 5 0 28 -7 51 -15 51 -18 50 -18 50 -4 0
32 -229 501 -247 507 -15 4 -44 -53 -69 -133 -14 -48 -18 -92 -17 -220 1 -193
25 -331 120 -675 8 -30 19 -68 23 -85 4 -16 24 -91 43 -165 20 -74 39 -158 43
-186 l6 -51 -138 -6 c-191 -9 -345 -44 -533 -122 -74 -30 -44 -43 -259 109
-79 56 -154 108 -165 116 -34 23 -319 226 -607 432 -150 107 -436 309 -463
328 -59 39 -247 181 -247 185 0 3 24 20 53 39 181 118 678 360 982 479 50 19
133 52 185 72 95 37 163 63 360 135 164 59 391 140 440 156 105 33 343 115
450 154 331 121 499 160 780 180 l145 11 42 -44 c82 -87 80 -158 -12 -277 -49
-65 -61 -79 -164 -194 -30 -34 -68 -77 -85 -96 -210 -236 -287 -339 -346 -463
-76 -159 -78 -201 -7 -109 20 26 49 61 64 78 16 18 39 45 52 60 30 35 224 257
231 264 11 11 139 167 172 210 57 76 153 221 193 294 88 161 127 347 91 441
-21 53 -79 107 -135 123 -58 18 -205 13 -296 -9z m-1535 -3276 c173 -148 352
-321 467 -452 114 -130 265 -386 279 -473 6 -32 2 -41 -34 -80 -77 -83 -243
-157 -457 -203 -136 -29 -277 -71 -350 -102 -38 -17 -140 -59 -225 -93 -490
-196 -652 -301 -899 -580 -212 -240 -345 -358 -474 -418 -71 -34 -108 -38
-172 -21 -81 22 -178 159 -211 298 -46 193 20 524 162 816 l38 77 80 39 c239
115 392 218 610 414 66 59 125 112 132 119 65 63 345 327 399 376 39 35 90 83
115 106 139 130 350 284 389 284 18 0 62 -31 151 -107z m590 -166 c52 -39 111
-84 131 -101 20 -17 62 -53 95 -81 54 -45 282 -254 344 -315 446 -434 584
-546 782 -634 48 -21 90 -46 93 -55 2 -9 12 -74 20 -146 11 -94 17 -279 22
-671 l6 -541 -49 -33 c-101 -70 -193 -148 -315 -269 -152 -152 -203 -213 -372
-440 -74 -100 -167 -213 -216 -261 -92 -90 -221 -183 -314 -225 -100 -46 -230
-55 -297 -20 -32 17 -84 72 -103 110 -29 59 -97 295 -97 340 0 7 50 34 113 60
229 95 597 297 615 338 2 4 10 7 18 7 8 0 14 4 14 8 0 4 13 15 28 24 68 40
350 275 425 353 99 104 178 263 197 396 22 153 -12 292 -136 555 -73 155 -85
186 -100 238 -19 72 -9 80 61 46 43 -21 80 -25 89 -11 11 17 -350 431 -376
431 -21 0 -78 -169 -78 -233 0 -36 24 -105 76 -215 24 -51 44 -95 44 -96 0 -2
22 -50 49 -107 110 -236 199 -442 238 -553 23 -65 23 -69 7 -95 -24 -36 -67
-78 -163 -155 -75 -60 -206 -152 -241 -169 -8 -4 -31 -17 -50 -28 -58 -36
-239 -124 -340 -167 -175 -74 -446 -173 -453 -165 -5 5 15 71 78 253 47 135
78 240 72 246 -4 5 -243 -474 -258 -517 -12 -35 -16 -38 -103 -64 -257 -78
-464 -102 -622 -75 -90 16 -240 68 -324 111 -127 66 -229 170 -278 286 -53
124 -87 390 -63 480 23 83 192 250 371 366 149 96 341 178 715 307 485 167
701 281 810 430 62 85 77 144 78 310 1 125 -2 155 -22 220 -52 166 -143 326
-284 498 -120 147 -106 153 63 29z m2811 -1479 c98 -58 158 -160 162 -277 2
-68 1 -71 -33 -106 -54 -56 -138 -119 -208 -154 -60 -30 -65 -31 -82 -16 -23
21 -84 162 -107 247 -12 42 -18 101 -18 175 0 103 2 114 22 135 44 43 187 41
264 -4z"/>
<path  d="M3313 5018 c-14 -19 -60 -100 -89 -158 -30 -60 -34 -52 80 -164 87
-85 134 -113 165 -97 10 6 37 36 61 67 76 100 90 109 126 76 85 -79 201 -172
214 -172 40 0 168 187 150 220 -13 24 -191 204 -222 224 -37 24 -55 12 -122
-83 -30 -44 -60 -82 -66 -86 -11 -7 -44 11 -71 37 -8 8 -51 44 -97 81 -82 66
-111 79 -129 55z"/>
<path  d="M4109 3628 c-31 -29 -86 -108 -99 -143 -14 -38 10 -74 121 -179 129
-123 140 -120 250 61 l31 53 -62 70 c-68 76 -172 160 -200 160 -9 0 -28 -10
-41 -22z"/>
<path  d="M6867 8584 c-3 -5 -24 -54 -47 -109 -50 -119 -50 -99 15 -500 40
-244 93 -619 120 -840 8 -71 20 -161 25 -200 5 -38 17 -131 25 -205 9 -74 22
-187 30 -250 8 -63 22 -178 30 -255 36 -309 69 -555 100 -745 9 -52 18 -124
21 -160 13 -164 25 -172 61 -40 47 177 66 478 44 680 -7 58 -16 141 -21 185
-5 44 -19 152 -30 240 -12 88 -25 195 -31 238 -5 42 -13 112 -18 155 -6 42
-19 149 -31 237 -11 88 -25 194 -30 235 -5 41 -25 201 -45 355 -20 154 -35
290 -33 303 3 22 4 22 61 -14 32 -20 60 -34 62 -32 3 2 -36 101 -86 219 -50
118 -116 275 -146 349 -63 154 -68 166 -76 154z"/>
<!-- <path  d="M6582 7533 c-41 -107 -53 -281 -26 -373 20 -68 40 -94 86 -116 35
-16 39 -16 63 0 31 20 55 76 55 127 0 52 -16 58 -50 18 l-28 -34 -27 25 c-51
48 -60 82 -59 238 0 78 -1 142 -2 142 -1 0 -6 -12 -12 -27z"/> -->
<!-- <path  d="M3744 7408 c-14 -41 -18 -85 -18 -193 -1 -121 2 -146 20 -185 39 -84
73 -88 124 -18 31 43 47 97 36 125 -6 14 -10 12 -35 -11 -35 -33 -58 -29 -97
17 -26 31 -26 34 -20 117 4 47 11 111 15 143 4 31 4 57 0 57 -4 0 -15 -24 -25
-52z"/> -->
<path  d="M8247 7168 c-48 -196 -51 -219 -34 -319 31 -180 71 -460 117 -809 17
-132 41 -302 55 -400 8 -52 21 -151 30 -220 9 -69 20 -152 25 -185 33 -204 77
-649 105 -1060 17 -256 36 -493 41 -514 7 -33 17 -20 57 79 47 115 57 191 57
447 -1 383 -35 757 -125 1368 -41 274 -81 579 -110 840 -8 77 -18 159 -21 183
l-5 43 28 -16 c15 -8 37 -21 48 -28 62 -39 97 -58 101 -54 11 10 -335 707
-350 707 -2 0 -10 -28 -19 -62z"/>
<!-- <path  d="M1949 6863 c-42 -43 -91 -100 -109 -128 -19 -27 -36 -52 -39 -55 -16
-14 -101 -152 -123 -200 -64 -139 -85 -262 -67 -392 21 -162 52 -218 119 -218
63 0 131 60 218 190 60 91 83 135 93 178 13 59 -7 50 -109 -47 -25 -24 -53
-41 -66 -41 -47 0 -76 63 -84 181 -4 71 -1 100 17 159 25 81 90 209 175 344
49 78 63 106 53 106 -1 0 -37 -35 -78 -77z"/> -->
<!-- <path  d="M2570 6272 c-73 -158 -106 -443 -61 -531 24 -46 71 -75 104 -65 33
10 75 53 87 90 16 47 7 56 -49 48 l-48 -6 -23 53 c-33 77 -35 123 -12 241 30
151 34 185 24 192 -5 3 -15 -7 -22 -22z"/> -->
<!-- <path  d="M8753 5845 c-40 -135 -58 -398 -32 -476 17 -49 67 -99 101 -99 44 0
68 35 68 97 0 54 -8 64 -30 38 -16 -20 -30 -19 -47 3 -53 68 -66 139 -52 292
6 64 9 132 7 151 l-3 34 -12 -40z"/> -->
<path  d="M5330 5693 c-35 -14 -100 -68 -130 -110 -32 -44 -32 -46 -17 -79 21
-42 85 -114 103 -114 21 0 17 -16 -8 -33 -59 -41 -121 -106 -115 -121 4 -9 12
-16 20 -16 20 0 236 130 307 185 53 41 60 50 60 81 0 19 -2 34 -5 34 -2 0 -38
-11 -79 -25 -41 -14 -90 -25 -109 -25 -43 0 -101 38 -105 69 -7 48 86 102 123
71 13 -11 15 -7 15 27 0 53 -19 71 -60 56z"/>
<path  d="M6917 5088 c-50 -77 -87 -146 -87 -164 0 -33 216 -224 253 -224 8 0
42 35 75 78 87 113 84 111 137 68 24 -20 51 -44 60 -52 51 -51 122 -104 139
-104 30 1 58 26 104 95 59 87 68 110 51 128 -94 99 -208 211 -222 219 -34 18
-61 -1 -122 -85 -33 -45 -67 -83 -75 -85 -9 -1 -66 38 -128 88 -62 49 -121 90
-131 90 -12 0 -32 -20 -54 -52z"/>
<!-- <path d="M6801 2454 c-43 -31 -77 -155 -88 -321 -3 -51 -9 -93 -13 -93 -11 0
-34 31 -75 100 -81 137 -186 240 -247 240 -57 0 -74 -103 -31 -188 17 -31 30
-40 82 -58 109 -38 156 -86 221 -227 22 -48 44 -87 49 -87 27 0 51 133 59 332
7 145 9 159 30 180 22 22 22 22 57 4 19 -11 35 -22 35 -26 0 -4 12 -12 26 -19
22 -10 30 -9 45 5 30 27 32 51 9 91 -40 70 -112 101 -159 67z"/> -->
<!-- <path d="M3663 1944 c-20 -35 -43 -153 -43 -223 0 -121 44 -201 111 -201 35 0
64 27 90 83 33 74 17 115 -26 67 -24 -26 -47 -25 -72 3 -35 39 -38 50 -43 172
-4 99 -7 116 -17 99z"  /> -->
</g>
</svg>
